/* XPM */
static char *_eebadfa26f247878205afd9a43260b5GQx02R9dPOmOmsfm[] = {
/* columns rows colors chars-per-pixel */
"32 32 138 2 ",
"   c #3F1530",
".  c #411732",
"X  c #431934",
"o  c #EA346F",
"O  c #E73570",
"+  c #E63872",
"@  c #E83A74",
"#  c #EC5551",
"$  c #EE5954",
"%  c #EC5C5A",
"&  c #F05F57",
"*  c #EE635D",
"=  c #F06057",
"-  c #F06158",
";  c #DC457D",
":  c #E6457C",
">  c #E84C7F",
",  c #DE6465",
"<  c #DF6867",
"1  c #D86A6B",
"2  c #E16262",
"3  c #ED6562",
"4  c #E36B66",
"5  c #E36C6A",
"6  c #ED6E6B",
"7  c #E17270",
"8  c #FC8766",
"9  c #FF8C67",
"0  c #FF8E6A",
"q  c #FD916D",
"w  c #F78F70",
"e  c #EF9276",
"r  c #ED957A",
"t  c #EF9B7C",
"y  c #F49474",
"u  c #FF9673",
"i  c #F69975",
"p  c #FF9977",
"a  c #F09B7C",
"s  c #DC4A81",
"d  c #D25287",
"f  c #DC5185",
"g  c #E74A80",
"h  c #E95588",
"j  c #FD639B",
"k  c #FC6BA2",
"l  c #F471A7",
"z  c #FF74A6",
"x  c #F472A8",
"c  c #E97DB1",
"v  c #F47DB0",
"b  c #6ABCD9",
"n  c #68C2DE",
"m  c #75C4DD",
"M  c #79C0DA",
"N  c #5EC5E6",
"B  c #61C3E3",
"V  c #6FC6E6",
"C  c #6EC9E5",
"Z  c #67CEEC",
"A  c #69CEEC",
"S  c #71C6E4",
"D  c #78C7E5",
"F  c #71C9E4",
"G  c #7CC9E2",
"H  c #71CEEB",
"J  c #7ACBE9",
"K  c #66D0EE",
"L  c #6ED1EE",
"P  c #72D1ED",
"I  c #7CD2ED",
"U  c #61D0F1",
"Y  c #6FD3F0",
"T  c #E59980",
"R  c #EAA082",
"E  c #FF81B2",
"W  c #83C0D4",
"Q  c #81C4DA",
"!  c #E6D2DE",
"~  c #E7D4E0",
"^  c #EAD7E2",
"/  c #EAD8E3",
"(  c #F3D6E4",
")  c #F5DAE5",
"_  c #E2E1EE",
"`  c #EBE2EE",
"'  c #F5E4EE",
"]  c #F9E4EE",
"[  c #F3EAEE",
"{  c #EDE6F0",
"}  c #F5E7F0",
"|  c #F8E7F1",
" . c #F6E9F2",
".. c #FBEAF2",
"X. c #E7F6FC",
"o. c #EBF7FB",
"O. c #EDF7FB",
"+. c #EBF7FC",
"@. c #EFF8FC",
"#. c #F3F1F0",
"$. c #F2F0F7",
"%. c #FBF1F2",
"&. c #FCF0F1",
"*. c #FDF0F1",
"=. c #FDF1F1",
"-. c #FFF1F1",
";. c #FDF1F2",
":. c #FCF1F3",
">. c #FDF0F5",
",. c #FDF3F6",
"<. c #FDF2F7",
"1. c #FFF2F7",
"2. c #FFF3F7",
"3. c #FDF4F4",
"4. c #FDF5F4",
"5. c #FEF5F5",
"6. c #F2F8FC",
"7. c #F3FAFC",
"8. c #F3FBFD",
"9. c #F2FBFE",
"0. c #F7F9FC",
"q. c #F4FAFD",
"w. c #F6FAFD",
"e. c #F3FCFF",
"r. c #FDFBFC",
"t. c #FDFBFD",
"y. c #FDFCFD",
"u. c #FEFCFD",
"i. c #FFFDFD",
"p. c #FFFEFD",
"a. c #FDFDFE",
"s. c #FEFDFE",
"d. c #FFFDFE",
"f. c #FFFEFE",
"g. c #FFFFFE",
"h. c #FFFEFF",
"j. c #FEFFFF",
"k. c white",
/* pixels */
"A A A A A A A A A A A A A A A A A A A A A A A A A A A A A A A A ",
"A A A A A A A A A A A A A A A A A A A A A A A A A A A A A A A A ",
"A A A A A A A A A A A A A A A A A A A A A A A A A A A A A A A A ",
"A A A A A A A A A A A A A A A A A A A A A A A A A A A A A A A A ",
"A A A A A A A A A A A Z Z K K K K K A A A A A A A A A A A A A A ",
"A A A A A A A A A A A F F S S S S V A A A A A A A A A A A A A A ",
"A A A A A A A A A A F c l s ; s ; d S K A A A A A A A A A A A A ",
"A A A A A A A A A Z S x j @ O + o ; V K Z A A A A A A A A A A A ",
"A A A A A A A A A L J v z g : : : f D L H A A A A A A A A A A A ",
"A A A A A A A Z P X.w.<.<.<...( ( ( ` ` _ H Z A A A A A A A A A ",
"A A A A A A A Z Y 9.k.k.k.k.k. .....' ] ` H Z A A A A A A A A A ",
"A A A A A A A Z G #.-...-.k.k.' ! ! ' ' ` H Z A A A A A A A A A ",
"A A A A A Z Z F t u 3 % 6 3.k.^   X / ..` H Z A A A A A A A A A ",
"A A A A A Z Z F i 9 $ # 3 3.k.^ . X / ..` H Z A A A A A A A A A ",
"A A A A A Z Z F R p 3 % 3 3.k.' ! ~ ' ] ` H Z A A A A A A A A A ",
"A A A A A A A Z I [ z j > <.k.' | ..' ] ` H Z A A A A A A A A A ",
"A A A A A A A Z Y $.E k h <.k.' ' ' ' ] ` H A A A A A A A A A A ",
"A A A A A A A A P 9.<.) ) k.k.' ' ' ' ] ` H Z A Z Z A A A A A A ",
"A A A A A A A Z L 9.k. . .k.k.' ' ' ' ' ` I H H H H A A A A A A ",
"A A A A A A A P I 9.k.k.k.k.k.' ' ' ' ' ' ` ` ` ` _ H Z A A A A ",
"A A A A A Z P @.} k.k.k.k.k.k.' ' k.k.' ' ] ] ' ] ` H Z A A A A ",
"A A A A A Z I w...k.k.k.k.k.k.' ' k.k.| ' ' ' ' ' ` H Z A A A A ",
"A A A A Z P o.| ' k.k.k.k.k.k.' '  .k.r.' ' ' ' ] ` H Z A A A A ",
"A A A A Z P O.| ' k.k.k.k.k.k.' ' ' k.r.' ' ' ' ' _ H Z A A A A ",
"A A A A A Z I w...k.k.k.k.k.k. .] k.k. .| ] ] ] ' I Z A A A A A ",
"A A A A A Z P +.{ 9.e.w.-.-.-.) ` %.-.) ) ` ` ` _ P Z A A A A A ",
"A A A A A A A P H P L G 5 3 * 5 Q 7 * * 5 G L H H A A A A A A A ",
"A A A A A A A Z Z Z U F y 0 $ , m r 9 $ 2 C K Z Z A A A A A A A ",
"A A A A A A A A A F C Q i q * 2 W a 0 % 2 M A A A A A A A A A A ",
"A A A A A A Z Z F r * w & & 8 = w - $ $ # < S Z Z Z A A A A A A ",
"A A A A A A Z N n T 4 e < < e 5 y 4 , < 2 1 b N B B Z A A A A A ",
"A A A A A A A Z Z F F F F F F F F F F S S F Z Z Z Z A A A A A A "
};
