/* XPM */
static char *brick_brown[] = {
/* width height num_colors chars_per_pixel */
"64 64 4 1",
/* colors */
"a c #8B4513",
"b c #A0522D",
"c c #CD853F",
"d c #DEB887",
/* pixels */
"aaaaaaaabbbbbbbbccccccccddddddddaaaaaaaabbbbbbbbccccccccdddddddd",
"aaaaaaaabbbbbbbbccccccccddddddddaaaaaaaabbbbbbbbccccccccdddddddd",
"aaaaaaaabbbbbbbbccccccccddddddddaaaaaaaabbbbbbbbccccccccdddddddd",
"aaaaaaaabbbbbbbbccccccccddddddddaaaaaaaabbbbbbbbccccccccdddddddd",
"bbbbbbbbccccccccddddddddaaaaaaaabbbbbbbbccccccccddddddddaaaaaaaa",
"bbbbbbbbccccccccddddddddaaaaaaaabbbbbbbbccccccccddddddddaaaaaaaa",
"bbbbbbbbccccccccddddddddaaaaaaaabbbbbbbbccccccccddddddddaaaaaaaa",
"bbbbbbbbccccccccddddddddaaaaaaaabbbbbbbbccccccccddddddddaaaaaaaa",
"ccccccccddddddddaaaaaaaabbbbbbbbccccccccddddddddaaaaaaaabbbbbbbb",
"ccccccccddddddddaaaaaaaabbbbbbbbccccccccddddddddaaaaaaaabbbbbbbb",
"ccccccccddddddddaaaaaaaabbbbbbbbccccccccddddddddaaaaaaaabbbbbbbb",
"ccccccccddddddddaaaaaaaabbbbbbbbccccccccddddddddaaaaaaaabbbbbbbb",
"ddddddddaaaaaaaabbbbbbbbccccccccddddddddaaaaaaaabbbbbbbbcccccccc",
"ddddddddaaaaaaaabbbbbbbbccccccccddddddddaaaaaaaabbbbbbbbcccccccc",
"ddddddddaaaaaaaabbbbbbbbccccccccddddddddaaaaaaaabbbbbbbbcccccccc",
"ddddddddaaaaaaaabbbbbbbbccccccccddddddddaaaaaaaabbbbbbbbcccccccc",
"aaaaaaaabbbbbbbbccccccccddddddddaaaaaaaabbbbbbbbccccccccdddddddd",
"aaaaaaaabbbbbbbbccccccccddddddddaaaaaaaabbbbbbbbccccccccdddddddd",
"aaaaaaaabbbbbbbbccccccccddddddddaaaaaaaabbbbbbbbccccccccdddddddd",
"aaaaaaaabbbbbbbbccccccccddddddddaaaaaaaabbbbbbbbccccccccdddddddd",
"bbbbbbbbccccccccddddddddaaaaaaaabbbbbbbbccccccccddddddddaaaaaaaa",
"bbbbbbbbccccccccddddddddaaaaaaaabbbbbbbbccccccccddddddddaaaaaaaa",
"bbbbbbbbccccccccddddddddaaaaaaaabbbbbbbbccccccccddddddddaaaaaaaa",
"bbbbbbbbccccccccddddddddaaaaaaaabbbbbbbbccccccccddddddddaaaaaaaa",
"ccccccccddddddddaaaaaaaabbbbbbbbccccccccddddddddaaaaaaaabbbbbbbb",
"ccccccccddddddddaaaaaaaabbbbbbbbccccccccddddddddaaaaaaaabbbbbbbb",
"ccccccccddddddddaaaaaaaabbbbbbbbccccccccddddddddaaaaaaaabbbbbbbb",
"ccccccccddddddddaaaaaaaabbbbbbbbccccccccddddddddaaaaaaaabbbbbbbb",
"ddddddddaaaaaaaabbbbbbbbccccccccddddddddaaaaaaaabbbbbbbbcccccccc",
"ddddddddaaaaaaaabbbbbbbbccccccccddddddddaaaaaaaabbbbbbbbcccccccc",
"ddddddddaaaaaaaabbbbbbbbccccccccddddddddaaaaaaaabbbbbbbbcccccccc",
"ddddddddaaaaaaaabbbbbbbbccccccccddddddddaaaaaaaabbbbbbbbcccccccc",
"aaaaaaaabbbbbbbbccccccccddddddddaaaaaaaabbbbbbbbccccccccdddddddd",
"aaaaaaaabbbbbbbbccccccccddddddddaaaaaaaabbbbbbbbccccccccdddddddd",
"aaaaaaaabbbbbbbbccccccccddddddddaaaaaaaabbbbbbbbccccccccdddddddd",
"aaaaaaaabbbbbbbbccccccccddddddddaaaaaaaabbbbbbbbccccccccdddddddd",
"bbbbbbbbccccccccddddddddaaaaaaaabbbbbbbbccccccccddddddddaaaaaaaa",
"bbbbbbbbccccccccddddddddaaaaaaaabbbbbbbbccccccccddddddddaaaaaaaa",
"bbbbbbbbccccccccddddddddaaaaaaaabbbbbbbbccccccccddddddddaaaaaaaa",
"bbbbbbbbccccccccddddddddaaaaaaaabbbbbbbbccccccccddddddddaaaaaaaa",
"ccccccccddddddddaaaaaaaabbbbbbbbccccccccddddddddaaaaaaaabbbbbbbb",
"ccccccccddddddddaaaaaaaabbbbbbbbccccccccddddddddaaaaaaaabbbbbbbb",
"ccccccccddddddddaaaaaaaabbbbbbbbccccccccddddddddaaaaaaaabbbbbbbb",
"ccccccccddddddddaaaaaaaabbbbbbbbccccccccddddddddaaaaaaaabbbbbbbb",
"ddddddddaaaaaaaabbbbbbbbccccccccddddddddaaaaaaaabbbbbbbbcccccccc",
"ddddddddaaaaaaaabbbbbbbbccccccccddddddddaaaaaaaabbbbbbbbcccccccc",
"ddddddddaaaaaaaabbbbbbbbccccccccddddddddaaaaaaaabbbbbbbbcccccccc",
"ddddddddaaaaaaaabbbbbbbbccccccccddddddddaaaaaaaabbbbbbbbcccccccc",
"aaaaaaaabbbbbbbbccccccccddddddddaaaaaaaabbbbbbbbccccccccdddddddd",
"aaaaaaaabbbbbbbbccccccccddddddddaaaaaaaabbbbbbbbccccccccdddddddd",
"aaaaaaaabbbbbbbbccccccccddddddddaaaaaaaabbbbbbbbccccccccdddddddd",
"aaaaaaaabbbbbbbbccccccccddddddddaaaaaaaabbbbbbbbccccccccdddddddd",
"bbbbbbbbccccccccddddddddaaaaaaaabbbbbbbbccccccccddddddddaaaaaaaa",
"bbbbbbbbccccccccddddddddaaaaaaaabbbbbbbbccccccccddddddddaaaaaaaa",
"bbbbbbbbccccccccddddddddaaaaaaaabbbbbbbbccccccccddddddddaaaaaaaa",
"bbbbbbbbccccccccddddddddaaaaaaaabbbbbbbbccccccccddddddddaaaaaaaa",
"ccccccccddddddddaaaaaaaabbbbbbbbccccccccddddddddaaaaaaaabbbbbbbb",
"ccccccccddddddddaaaaaaaabbbbbbbbccccccccddddddddaaaaaaaabbbbbbbb",
"ccccccccddddddddaaaaaaaabbbbbbbbccccccccddddddddaaaaaaaabbbbbbbb",
"ccccccccddddddddaaaaaaaabbbbbbbbccccccccddddddddaaaaaaaabbbbbbbb",
"ddddddddaaaaaaaabbbbbbbbccccccccddddddddaaaaaaaabbbbbbbbcccccccc",
"ddddddddaaaaaaaabbbbbbbbccccccccddddddddaaaaaaaabbbbbbbbcccccccc",
"ddddddddaaaaaaaabbbbbbbbccccccccddddddddaaaaaaaabbbbbbbbcccccccc",
"ddddddddaaaaaaaabbbbbbbbccccccccddddddddaaaaaaaabbbbbbbbcccccccc"
};